<?xml version="1.0" encoding="utf-8"?>
<!-- Generator: Adobe Illustrator 24.2.3, SVG Export Plug-In . SVG Version: 6.00 Build 0)  -->
<svg version="1.1" id="Layer_1" xmlns="http://www.w3.org/2000/svg" xmlns:xlink="http://www.w3.org/1999/xlink" x="0px" y="0px"
	 viewBox="0 0 414.2 300.5" style="enable-background:new 0 0 414.2 300.5;" xml:space="preserve">
<style type="text/css">
	.st0{opacity:0.95;fill:#1ECBE1;enable-background:new    ;}
	.st1{opacity:0.56;fill:#1ECBE1;enable-background:new    ;}
	.st2{opacity:0.59;fill:#1ECBE1;enable-background:new    ;}
</style>
<g id="Group_2" transform="translate(0.2 -841.372)">
	<path id="Path_2" class="st0" d="M-0.1,1056.7c34.9-21.2,72-33,110.4-29.8c45.6,3.7,64.8,26.1,110.5,29.8
		c49.9,4.1,62-30.6,110.5-29.8c35,0.5,63.5,16.2,82.6,29.8v263.2h-414V1056.7z"/>
	<path id="Path_3" class="st1" d="M-0.3,1038.7c13.1,10.3,27.3,11.6,54.2,18.2c17.8,4.2,36.3,4.2,54.1,0c6.8-1.7,13.4-4.1,19.8-7.2
		c6.7-3,60.3-27.3,112.2-22.5c34,3.2,42.2,16.5,82.4,15.3c11-0.3,21.8-1.6,27.5-2.3c21.7-2.7,43.1-7.2,64-13.5v293.1h-414
		L-0.3,1038.7z"/>
	<path id="Path_4" class="st2" d="M-0.1,1056.7c16.2-13.4,47-33.4,74.8-35.8c24.2-2.1,33.2-2,45.8,0c6.6,1,27.4,8.5,40.5,14.6
		c28.3,10.7,39.6,11,54.6,13.9c8.8,1.1,9.3,1.4,29.6-2.8c46.4-9.3,54.6-27.2,97.6-25c20.1,1,39.9,6.6,42.3,7.3
		c9.9,2.9,19.6,6.5,29,10.8v280.1H-0.1V1056.7z"/>
</g>
</svg>
