<svg xmlns="http://www.w3.org/2000/svg" width="414.2" height="300.5" viewBox="0 0 414.2 300.5">
  <g id="Group_2" data-name="Group 2" transform="translate(0.2 -841.372)">
    <path id="Path_2" data-name="Path 2" d="M0,879.742c34.941-21.165,71.957-32.964,110.4-29.85,45.634,3.7,64.768,26.136,110.494,29.85,49.893,4.053,61.956-30.577,110.494-29.85,34.986.523,63.524,16.183,82.612,29.85v263.217H0Z" transform="translate(0 -1.087)" fill="#1ecbe1" opacity="0.95"/>
    <path id="Path_3" data-name="Path 3" d="M-.2,862.024c13.12,10.339,27.313,11.586,54.225,18.242a116.832,116.832,0,0,0,54.12,0,99.665,99.665,0,0,0,19.766-7.2c6.746-3.006,60.307-27.309,112.15-22.5,33.952,3.151,42.206,16.455,82.447,15.312,10.97-.311,21.838-1.626,27.483-2.32A384.722,384.722,0,0,0,414,850.106v293.068H0Z" transform="translate(0 -1.302)" fill="#1ecbe1" opacity="0.56"/>
    <path id="Path_4" data-name="Path 4" d="M-.04,889.98C16.12,876.619,47,856.615,74.72,854.19c24.189-2.117,33.155-1.973,45.76,0,6.614,1.035,27.413,8.536,40.48,14.634,28.32,10.657,39.593,11.03,54.64,13.918,8.8,1.113,9.333,1.392,29.6-2.85,46.4-9.279,54.556-27.2,97.572-24.985,20.1,1.034,39.927,6.646,42.275,7.322A202.751,202.751,0,0,1,414,873.033v280.123H0Z" transform="translate(0 -11.284)" fill="#1ecbe1" opacity="0.59"/>
  </g>
</svg>
